<svg width="215" height="28" viewBox="0 0 215 28" fill="none" xmlns="http://www.w3.org/2000/svg">
<path d="M96.4833 10.0391C98.0136 10.0391 99.2439 10.5158 100.174 11.4691C101.119 12.4073 101.592 13.7238 101.592 15.4187V22.7957H98.4412V15.8499C98.4412 14.8663 98.1937 14.1173 97.6986 13.6028C97.2034 13.0731 96.5283 12.8083 95.6731 12.8083C94.8179 12.8083 94.1353 13.0731 93.6252 13.6028C93.1301 14.1173 92.8825 14.8663 92.8825 15.8499V22.7957H89.7319V15.8499C89.7319 14.8663 89.4843 14.1173 88.9892 13.6028C88.4941 13.0731 87.819 12.8083 86.9638 12.8083C86.0936 12.8083 85.4034 13.0731 84.8933 13.6028C84.3982 14.1173 84.1507 14.8663 84.1507 15.8499V22.7957H81V10.2207H84.1507V11.7415C84.5558 11.2119 85.0734 10.7957 85.7035 10.4931C86.3486 10.1904 87.0538 10.0391 87.819 10.0391C88.7942 10.0391 89.6643 10.2509 90.4295 10.6747C91.1947 11.0832 91.7873 11.6734 92.2074 12.4451C92.6125 11.7188 93.1976 11.1362 93.9628 10.6974C94.7429 10.2585 95.5831 10.0391 96.4833 10.0391Z" fill="#E95E5F"/>
<path d="M106.18 8.72257C105.624 8.72257 105.159 8.54855 104.784 8.2005C104.424 7.83733 104.244 7.39092 104.244 6.86129C104.244 6.33165 104.424 5.89281 104.784 5.54477C105.159 5.18159 105.624 5 106.18 5C106.735 5 107.192 5.18159 107.552 5.54477C107.927 5.89281 108.115 6.33165 108.115 6.86129C108.115 7.39092 107.927 7.83733 107.552 8.2005C107.192 8.54855 106.735 8.72257 106.18 8.72257ZM107.732 10.2207V22.7957H104.582V10.2207H107.732Z" fill="#E95E5F"/>
<path d="M110.035 16.4628C110.035 15.1917 110.283 14.0643 110.778 13.0807C111.288 12.0971 111.978 11.3405 112.848 10.8108C113.718 10.2812 114.686 10.0164 115.751 10.0164C116.561 10.0164 117.334 10.198 118.069 10.5612C118.804 10.9092 119.39 11.3783 119.825 11.9685V5.99874H123.02V22.7957H119.825V20.9344C119.435 21.5549 118.887 22.0542 118.182 22.4325C117.477 22.8108 116.659 23 115.729 23C114.679 23 113.718 22.7276 112.848 22.1828C111.978 21.6381 111.288 20.8739 110.778 19.8903C110.283 18.8916 110.035 17.7491 110.035 16.4628ZM119.847 16.5082C119.847 15.7364 119.697 15.0782 119.397 14.5334C119.097 13.9735 118.692 13.5498 118.182 13.2623C117.672 12.9596 117.124 12.8083 116.539 12.8083C115.954 12.8083 115.414 12.9521 114.919 13.2396C114.423 13.5271 114.018 13.9508 113.703 14.5107C113.403 15.0555 113.253 15.7062 113.253 16.4628C113.253 17.2194 113.403 17.8852 113.703 18.4603C114.018 19.0202 114.423 19.4515 114.919 19.7541C115.429 20.0567 115.969 20.2081 116.539 20.2081C117.124 20.2081 117.672 20.0643 118.182 19.7768C118.692 19.4741 119.097 19.0504 119.397 18.5057C119.697 17.9458 119.847 17.2799 119.847 16.5082Z" fill="#E95E5F"/>
<path d="M125.287 16.4628C125.287 15.1917 125.535 14.0643 126.03 13.0807C126.54 12.0971 127.23 11.3405 128.1 10.8108C128.971 10.2812 129.938 10.0164 131.004 10.0164C131.814 10.0164 132.586 10.198 133.322 10.5612C134.057 10.9092 134.642 11.3783 135.077 11.9685V5.99874H138.273V22.7957H135.077V20.9344C134.687 21.5549 134.139 22.0542 133.434 22.4325C132.729 22.8108 131.911 23 130.981 23C129.931 23 128.971 22.7276 128.1 22.1828C127.23 21.6381 126.54 20.8739 126.03 19.8903C125.535 18.8916 125.287 17.7491 125.287 16.4628ZM135.099 16.5082C135.099 15.7364 134.949 15.0782 134.649 14.5334C134.349 13.9735 133.944 13.5498 133.434 13.2623C132.924 12.9596 132.376 12.8083 131.791 12.8083C131.206 12.8083 130.666 12.9521 130.171 13.2396C129.676 13.5271 129.271 13.9508 128.956 14.5107C128.656 15.0555 128.505 15.7062 128.505 16.4628C128.505 17.2194 128.656 17.8852 128.956 18.4603C129.271 19.0202 129.676 19.4515 130.171 19.7541C130.681 20.0567 131.221 20.2081 131.791 20.2081C132.376 20.2081 132.924 20.0643 133.434 19.7768C133.944 19.4741 134.349 19.0504 134.649 18.5057C134.949 17.9458 135.099 17.2799 135.099 16.5082Z" fill="#E95E5F"/>
<path d="M144.5 5.99874V22.7957H141.35V5.99874H144.5Z" fill="#E95E5F"/>
<path d="M159.203 16.2358C159.203 16.6898 159.173 17.0984 159.113 17.4615H149.999C150.074 18.3695 150.389 19.0807 150.944 19.5952C151.499 20.1097 152.182 20.367 152.992 20.367C154.162 20.367 154.995 19.86 155.49 18.8462H158.888C158.528 20.0567 157.838 21.0555 156.818 21.8424C155.798 22.6141 154.545 23 153.059 23C151.859 23 150.779 22.7352 149.819 22.2055C148.874 21.6608 148.131 20.8966 147.591 19.913C147.066 18.9294 146.803 17.7945 146.803 16.5082C146.803 15.2068 147.066 14.0643 147.591 13.0807C148.116 12.0971 148.851 11.3405 149.796 10.8108C150.741 10.2812 151.829 10.0164 153.059 10.0164C154.245 10.0164 155.302 10.2736 156.233 10.7881C157.178 11.3026 157.905 12.0366 158.416 12.9899C158.941 13.9281 159.203 15.0101 159.203 16.2358ZM155.94 15.3279C155.925 14.5107 155.632 13.86 155.062 13.3758C154.492 12.8764 153.795 12.6267 152.969 12.6267C152.189 12.6267 151.529 12.8689 150.989 13.3531C150.464 13.8222 150.141 14.4805 150.021 15.3279H155.94Z" fill="#E95E5F"/>
<path d="M178.111 10.3569L174.263 22.7957H172.148L169.177 12.9218L166.206 22.7957H164.091L160.22 10.3569H162.313L165.149 20.7982L168.209 10.3569H170.302L173.295 20.8209L176.086 10.3569H178.111Z" fill="#E95E5F"/>
<path d="M179.379 16.5309C179.379 15.2598 179.634 14.1475 180.144 13.1942C180.654 12.2257 181.352 11.4767 182.237 10.947C183.137 10.4174 184.135 10.1526 185.23 10.1526C186.31 10.1526 187.248 10.3871 188.043 10.8562C188.838 11.3253 189.431 11.9155 189.821 12.6267V10.3569H191.891V22.7957H189.821V20.4805C189.416 21.2068 188.808 21.8121 187.998 22.2963C187.203 22.7654 186.273 23 185.208 23C184.112 23 183.122 22.7276 182.237 22.1828C181.352 21.6381 180.654 20.8739 180.144 19.8903C179.634 18.9067 179.379 17.7869 179.379 16.5309ZM189.821 16.5536C189.821 15.6154 189.633 14.7982 189.258 14.1021C188.883 13.4061 188.373 12.8764 187.728 12.5132C187.098 12.1349 186.4 11.9458 185.635 11.9458C184.87 11.9458 184.172 12.1274 183.542 12.4905C182.912 12.8537 182.409 13.3834 182.034 14.0794C181.659 14.7755 181.472 15.5927 181.472 16.5309C181.472 17.4842 181.659 18.3165 182.034 19.0277C182.409 19.7238 182.912 20.261 183.542 20.6393C184.172 21.0025 184.87 21.1841 185.635 21.1841C186.4 21.1841 187.098 21.0025 187.728 20.6393C188.373 20.261 188.883 19.7238 189.258 19.0277C189.633 18.3165 189.821 17.4918 189.821 16.5536Z" fill="#E95E5F"/>
<path d="M197.4 12.377C197.76 11.6658 198.27 11.1135 198.931 10.7201C199.606 10.3266 200.423 10.1299 201.384 10.1299V12.2636H200.843C198.548 12.2636 197.4 13.5195 197.4 16.0315V22.7957H195.352V10.3569H197.4V12.377Z" fill="#E95E5F"/>
<path d="M215 16.0996C215 16.4931 214.977 16.9092 214.932 17.348H205.075C205.15 18.5738 205.563 19.5347 206.313 20.2308C207.078 20.9117 208.001 21.2522 209.081 21.2522C209.966 21.2522 210.702 21.0479 211.287 20.6393C211.887 20.2156 212.307 19.6557 212.547 18.9596H214.752C214.422 20.1551 213.762 21.1311 212.772 21.8878C211.782 22.6293 210.552 23 209.081 23C207.911 23 206.861 22.7352 205.931 22.2055C205.015 21.6759 204.295 20.9269 203.77 19.9584C203.245 18.9748 202.982 17.8398 202.982 16.5536C202.982 15.2673 203.238 14.14 203.748 13.1715C204.258 12.203 204.97 11.4615 205.886 10.947C206.816 10.4174 207.881 10.1526 209.081 10.1526C210.251 10.1526 211.287 10.4098 212.187 10.9243C213.087 11.4388 213.777 12.1501 214.257 13.058C214.752 13.9508 215 14.9647 215 16.0996ZM212.885 15.6683C212.885 14.8815 212.712 14.2081 212.367 13.6482C212.022 13.0731 211.549 12.6419 210.949 12.3544C210.364 12.0517 209.711 11.9004 208.991 11.9004C207.956 11.9004 207.071 12.2333 206.336 12.8991C205.616 13.5649 205.203 14.488 205.098 15.6683H212.885Z" fill="#E95E5F"/>
<path d="M45.9318 15.0127C46.1839 14.6222 46.3856 14.3359 46.5705 14.0322C47.9572 11.7414 49.3187 9.43328 50.7727 7.15119C51.0376 6.68748 51.4352 6.31998 51.9108 6.09931C52.3865 5.87864 52.9167 5.81566 53.4284 5.91903C53.9238 5.99618 54.3799 6.24228 54.7241 6.61811C55.0683 6.99394 55.2808 7.47789 55.3278 7.99287C55.3775 8.61606 55.2489 9.24062 54.958 9.78904C52.6832 13.6706 50.3636 17.5262 47.9992 21.3557C46.8731 23.1779 44.6375 23.0911 43.545 21.1822C42.2087 18.9348 40.9397 16.644 39.637 14.3793C39.4605 14.0669 39.2672 13.7719 39.0067 13.338L38.0822 14.8478C36.8384 16.939 35.5609 19.0302 34.3171 21.1301C33.0733 23.23 30.7033 23.2647 29.4342 21.0346C28.0055 18.5356 26.5852 16.0279 25.106 13.4335C24.8875 13.7719 24.7026 14.0409 24.543 14.3012C23.1478 16.5919 21.7695 18.8914 20.3408 21.1735C20.1683 21.4681 19.941 21.7245 19.6719 21.9278C19.4028 22.1311 19.0973 22.2772 18.7731 22.3578C18.4489 22.4384 18.1125 22.4518 17.7832 22.3972C17.454 22.3426 17.1385 22.2211 16.8551 22.0398C16.5717 21.8584 16.3259 21.6209 16.1319 21.3408C15.938 21.0607 15.7999 20.7437 15.7254 20.4081C15.651 20.0726 15.6417 19.7251 15.6982 19.3858C15.7548 19.0465 15.8759 18.7221 16.0546 18.4315C18.2958 14.6945 20.5733 10.9662 22.8873 7.24663C23.1183 6.79065 23.4682 6.41044 23.8974 6.14895C24.3267 5.88745 24.8182 5.7551 25.3165 5.76683C25.8147 5.77856 26.2999 5.93392 26.7171 6.21534C27.1344 6.49677 27.4671 6.89306 27.6777 7.35944C28.9468 9.57211 30.199 11.8021 31.4513 14.0148C31.6277 14.3272 31.821 14.6222 32.0648 15.0214L36.3341 7.97552C36.519 7.67182 36.6955 7.35076 36.914 7.05574C37.1634 6.65241 37.5107 6.32349 37.9213 6.10165C38.3319 5.87981 38.7917 5.77279 39.2548 5.79122C39.7179 5.80964 40.1683 5.95287 40.5612 6.20667C40.954 6.46048 41.2758 6.81601 41.4943 7.23796C42.797 9.46799 44.0156 11.7241 45.3267 13.9714C45.4948 14.2925 45.6797 14.5962 45.9318 15.0127Z" fill="#E95E5F"/>
<path d="M57.7002 27.9999L71 14.2361H64.5344L57.7337 21.2827C57.3055 21.7225 56.9657 22.2458 56.7337 22.8222C56.5018 23.3986 56.3824 24.0169 56.3824 24.6413C56.3824 25.2657 56.5018 25.8839 56.7337 26.4603C56.9657 27.0368 57.3055 27.56 57.7337 27.9999H57.7002Z" fill="#E95E5F" fill-opacity="0.5"/>
<path d="M57.7205 0.472656C57.2963 0.905857 56.9597 1.42015 56.7302 1.98616C56.5006 2.55217 56.3824 3.15881 56.3824 3.77146C56.3824 4.38411 56.5006 4.99076 56.7302 5.55677C56.9597 6.12278 57.2963 6.63706 57.7205 7.07026L64.5311 13.9914C64.9564 14.424 65.2937 14.9381 65.524 15.5042C65.7542 16.0703 65.8727 16.6772 65.8727 17.2902C65.8727 17.9031 65.7542 18.5101 65.524 19.0762C65.2937 19.6422 64.9564 20.1563 64.5311 20.589L71 13.9914L57.7288 0.472656H57.7205Z" fill="#E95E5F"/>
<path d="M13.0515 0L2.61035 10.8788L6.26476 14L13.0515 6.71722C13.4769 6.27617 13.8144 5.75255 14.0447 5.17628C14.2749 4.60001 14.3934 3.98236 14.3934 3.35861C14.3934 2.73486 14.2749 2.11721 14.0447 1.54094C13.8144 0.964666 13.4769 0.441054 13.0515 0Z" fill="#E95E5F" fill-opacity="0.5"/>
<path d="M13.2758 27.9997C13.7012 27.5437 14.0386 27.0024 14.2689 26.4066C14.4991 25.8108 14.6176 25.1722 14.6176 24.5273C14.6176 23.8824 14.4991 23.2438 14.2689 22.648C14.0386 22.0522 13.7012 21.5109 13.2758 21.0549L6.47904 13.7695C6.05361 13.3135 5.71614 12.7721 5.4859 12.1763C5.25566 11.5805 5.13716 10.942 5.13716 10.2971C5.13716 9.65218 5.25566 9.0136 5.4859 8.4178C5.71614 7.822 6.05361 7.28065 6.47904 6.82465L0 13.7695L13.2758 27.9997Z" fill="#E95E5F"/>
</svg>
